<svg width="26" height="26" viewBox="0 0 26 26" fill="none" xmlns="http://www.w3.org/2000/svg">
<path d="M13.1814 0.955078C6.44428 0.955078 0.977295 6.42206 0.977295 13.1592C0.977295 19.8964 6.44428 25.3633 13.1814 25.3633C19.9186 25.3633 25.3856 19.8964 25.3856 13.1592C25.3856 6.42206 19.9186 0.955078 13.1814 0.955078ZM14.9023 20.5914V21.2997C14.9023 22.1909 14.1706 22.9225 13.2795 22.9225H13.2678C12.3766 22.9225 11.6449 22.1909 11.6449 21.2997V20.568C10.0221 20.2256 8.5822 19.3359 7.97199 17.8345C7.69103 17.1629 8.21637 16.4195 8.94803 16.4195H9.24069C9.69286 16.4195 10.0587 16.7253 10.2299 17.1512C10.584 18.0672 11.5118 18.7008 13.2926 18.7008C15.6852 18.7008 16.2222 17.5053 16.2222 16.7605C16.2222 15.7478 15.6852 14.7952 12.9634 14.1484C9.93724 13.4168 7.86224 12.1715 7.86224 9.66918C7.86224 7.57077 9.55824 6.20256 11.6581 5.75186V5.0202C11.6581 4.12903 12.3898 3.39737 13.2809 3.39737H13.2926C14.1838 3.39737 14.9155 4.12903 14.9155 5.0202V5.77674C16.5998 6.19232 17.6621 7.24152 18.1245 8.5351C18.3689 9.20677 17.8568 9.91356 17.1353 9.91356H16.8178C16.3656 9.91356 15.9998 9.59601 15.8783 9.15702C15.5974 8.22927 14.8291 7.63077 13.2912 7.63077C11.4606 7.63077 10.3616 8.46047 10.3616 9.6326C10.3616 10.6584 11.1547 11.3286 13.6204 11.9637C16.0861 12.5988 18.7216 13.6597 18.7216 16.7356C18.6967 18.9686 17.0256 20.189 14.9023 20.5914Z" fill="#00539B"/>
<g style="mix-blend-mode:multiply">
<path d="M13.1814 0.955078C13.0322 0.955078 12.8844 0.960932 12.7351 0.966785C19.2659 1.20238 24.4929 6.57278 24.4929 13.1592C24.4929 19.7456 19.2645 25.1175 12.7351 25.3516C12.8829 25.3575 13.0307 25.3633 13.1814 25.3633C19.9186 25.3633 25.3856 19.8964 25.3856 13.1592C25.3856 6.42206 19.9186 0.955078 13.1814 0.955078Z" fill="#00539B"/>
</g>
<g style="mix-blend-mode:soft-light">
<path d="M1.77773 13.0987C1.77773 6.78741 6.57598 1.59114 12.7205 0.958984C6.19698 1.2019 0.977295 6.56937 0.977295 13.1514C0.977295 19.7334 6.44428 25.3555 13.1814 25.3555C13.6073 25.3555 14.0287 25.3336 14.4428 25.2912C14.2892 25.297 14.137 25.3029 13.9819 25.3029C7.24472 25.3029 1.77773 19.8359 1.77773 13.0987Z" fill="white"/>
</g>
</svg>
