<svg width="18" height="23" viewBox="0 0 18 23" fill="none" xmlns="http://www.w3.org/2000/svg">
<path d="M17.9084 2.90059C17.9084 1.71384 16.9484 0.742188 15.7602 0.742188H8.02214C7.44998 0.742188 6.89977 0.969004 6.49004 1.37873L1.28791 6.58086C0.878182 6.99059 0.651367 7.5408 0.651367 8.11296V20.1678C0.651367 21.3546 1.62302 22.3262 2.80977 22.3262H15.7704C16.9572 22.3262 17.9186 21.3546 17.9186 20.1678L17.9084 2.90059ZM4.96818 19.0879C4.37407 19.0879 3.88824 18.6021 3.88824 18.008C3.88824 17.4139 4.37407 16.928 4.96818 16.928C5.56229 16.928 6.04811 17.4139 6.04811 18.008C6.04811 18.6021 5.56229 19.0879 4.96818 19.0879ZM13.6018 19.0879C13.0077 19.0879 12.5219 18.6021 12.5219 18.008C12.5219 17.4139 13.0077 16.928 13.6018 16.928C14.1959 16.928 14.6817 17.4139 14.6817 18.008C14.6817 18.6021 14.1959 19.0879 13.6018 19.0879ZM4.96818 14.7711C4.37407 14.7711 3.88824 14.2853 3.88824 13.6912V11.5327C3.88824 10.9386 4.37407 10.4528 4.96818 10.4528C5.56229 10.4528 6.04811 10.9386 6.04811 11.5327V13.6912C6.04811 14.2853 5.56229 14.7711 4.96818 14.7711ZM9.28499 19.0879C8.69088 19.0879 8.20505 18.6021 8.20505 18.008V15.8496C8.20505 15.2554 8.69088 14.7696 9.28499 14.7696C9.8791 14.7696 10.3649 15.2554 10.3649 15.8496V18.008C10.3649 18.6021 9.8791 19.0879 9.28499 19.0879ZM9.28499 12.6127C8.69088 12.6127 8.20505 12.1269 8.20505 11.5327C8.20505 10.9386 8.69088 10.4528 9.28499 10.4528C9.8791 10.4528 10.3649 10.9386 10.3649 11.5327C10.3649 12.1269 9.8791 12.6127 9.28499 12.6127ZM13.6018 14.7711C13.0077 14.7711 12.5219 14.2853 12.5219 13.6912V11.5327C12.5219 10.9386 13.0077 10.4528 13.6018 10.4528C14.1959 10.4528 14.6817 10.9386 14.6817 11.5327V13.6912C14.6817 14.2853 14.1959 14.7711 13.6018 14.7711Z" fill="#00539B"/>
<g style="mix-blend-mode:soft-light">
<path d="M1.7313 20.1678V8.11296C1.7313 7.5408 1.95812 6.99059 2.36785 6.58086L7.56997 1.37873C7.9797 0.969004 8.52991 0.742188 9.10207 0.742188H8.02214C7.44998 0.742188 6.89977 0.969004 6.49004 1.37873L1.28791 6.58086C0.878182 6.99059 0.651367 7.5408 0.651367 8.11296V20.1678C0.651367 21.3546 1.62302 22.3262 2.80977 22.3262H3.88971C2.70295 22.3262 1.7313 21.3546 1.7313 20.1678Z" fill="white"/>
</g>
</svg>
