<svg width="177" height="45" viewBox="0 0 177 45" fill="none" xmlns="http://www.w3.org/2000/svg">
<g clip-path="url(#clip0)">
<path fill-rule="evenodd" clip-rule="evenodd" d="M28.6228 14.3886C28.6228 15.7523 27.5004 16.8808 26.1441 16.8808C24.7878 16.8808 23.6653 15.7523 23.6653 14.3886C23.6653 13.025 24.7878 11.8965 26.1441 11.8965C27.5471 11.8965 28.6228 13.025 28.6228 14.3886Z" fill="#14B04C"/>
<path d="M81.0982 22.8528H63.279C63.5129 24.8747 64.1209 26.4264 65.1966 27.4609C66.2722 28.4954 67.6753 29.0127 69.4526 29.0127C72.1184 29.0127 73.8957 27.8841 74.8778 25.58H80.4434C79.8354 28.0252 78.5258 29.9531 76.5615 31.4108C74.5972 32.8685 72.212 33.5738 69.359 33.5738C65.8046 33.5738 62.9516 32.4453 60.8002 30.1412C58.6488 27.8371 57.5264 24.8277 57.5264 21.0659C57.5264 17.3042 58.6021 14.2478 60.7535 11.9907C62.9516 9.68663 65.8046 8.55811 69.2655 8.55811C72.8667 8.55811 75.7197 9.73365 77.8243 12.1318C79.9289 14.5299 81.0046 17.6333 81.0046 21.4891V22.8528H81.0982ZM63.3258 18.7619H75.2987C75.0649 17.0221 74.4101 15.6114 73.3812 14.5769C72.3523 13.5424 70.996 13.0252 69.3123 13.0252C65.8981 13.0722 63.887 15.0001 63.3258 18.7619Z" fill="black"/>
<path d="M105.512 0H111.966L100.18 33.0094H92.884L80.8643 0H87.5055L93.4452 17.069C94.8483 21.2539 95.8773 24.6865 96.5788 27.3668C97.3739 24.3103 98.4028 20.8777 99.6656 17.069L105.512 0Z" fill="black"/>
<path d="M115.941 33.0093V9.07508H121.741V33.0093H115.941ZM115.988 5.97164V0.51709H121.694V5.97164H115.988Z" fill="black"/>
<path d="M127.26 25.439H132.919C133.059 26.9437 133.573 27.9782 134.369 28.5895C135.164 29.2007 136.473 29.5299 138.204 29.5299C141.337 29.5299 142.927 28.5895 142.927 26.6616C142.927 25.8152 142.6 25.1098 141.898 24.6866C141.197 24.2634 140.028 23.8402 138.25 23.5111L135.538 23.0409C130.346 22.1945 127.727 19.7493 127.727 15.7995C127.727 13.5424 128.569 11.7556 130.3 10.486C132.03 9.21641 134.462 8.55811 137.596 8.55811C144.377 8.55811 147.885 11.2854 148.119 16.6929H142.647C142.6 15.2822 142.132 14.2478 141.29 13.6365C140.449 13.0252 139.233 12.7431 137.596 12.7431C134.836 12.7431 133.433 13.6835 133.433 15.5174C133.433 16.3167 133.761 16.928 134.369 17.3982C134.977 17.8685 136.006 18.1976 137.409 18.4327L140.402 18.9029C143.302 19.4202 145.406 20.2666 146.716 21.3951C148.025 22.5236 148.68 24.1224 148.68 26.1913C148.68 28.5895 147.745 30.4703 145.921 31.7399C144.097 33.0095 141.478 33.6678 138.11 33.6678C131.188 33.6678 127.54 30.9405 127.26 25.439Z" fill="black"/>
<path d="M170.287 33.0095C170.007 32.4923 169.773 31.5518 169.633 30.0942C168.043 32.3982 165.47 33.5738 161.962 33.5738C159.343 33.5738 157.286 32.9625 155.695 31.6929C154.152 30.4233 153.357 28.6835 153.357 26.4264C153.357 22.0534 156.397 19.5612 162.477 18.95L166.078 18.6208C167.294 18.4797 168.136 18.1976 168.651 17.7744C169.165 17.3512 169.446 16.7399 169.446 15.8935C169.446 14.859 169.118 14.1067 168.463 13.6365C167.809 13.1663 166.686 12.9311 165.096 12.9311C163.412 12.9311 162.196 13.2133 161.448 13.7775C160.7 14.3418 160.279 15.3293 160.138 16.7399H154.433C154.76 11.2854 158.361 8.55811 165.143 8.55811C171.737 8.55811 175.058 10.9562 175.058 15.7525V28.4954C175.058 30.6114 175.385 32.1161 176.04 33.0565H170.287V33.0095ZM167.809 27.8841C168.931 26.8967 169.492 25.439 169.492 23.5581V21.3951C168.931 21.9123 168.043 22.1945 166.78 22.3826L163.646 22.7587C162.103 22.9468 161.027 23.323 160.326 23.8402C159.671 24.4045 159.343 25.1569 159.343 26.1913C159.343 27.2258 159.671 28.0252 160.372 28.5895C161.074 29.1537 162.056 29.4358 163.366 29.4358C165.19 29.3888 166.639 28.9186 167.809 27.8841Z" fill="black"/>
<mask id="mask0" mask-type="alpha" maskUnits="userSpaceOnUse" x="40" y="39" width="6" height="6">
<path fill-rule="evenodd" clip-rule="evenodd" d="M45.9025 44.9919H40.6176V39.6313H45.9025V44.9919Z" fill="white"/>
</mask>
<g mask="url(#mask0)">
<path fill-rule="evenodd" clip-rule="evenodd" d="M45.9027 42.3116C45.9027 43.7693 44.7335 44.9919 43.2836 44.9919C41.8338 44.9919 40.6646 43.8163 40.6646 42.3116C40.6646 40.8539 41.8338 39.6313 43.2836 39.6313C44.7335 39.6313 45.9027 40.8539 45.9027 42.3116Z" fill="#E8292B"/>
</g>
<path d="M40.4552 5.54865C35.7783 4.7963 31.0078 4.51417 26.2841 4.93736C21.6072 5.36056 16.9302 6.44207 12.7677 8.41699C10.6631 9.40445 8.6988 10.674 7.0151 12.1787C5.3314 13.6834 3.97508 15.5173 3.22677 17.5392C2.47846 19.5612 2.47846 21.7242 3.22677 23.6521C3.97508 25.58 5.37817 27.2728 7.06187 28.6364L6.96833 28.5424C9.72772 30.4233 12.908 31.5988 16.2287 32.2101C19.5493 32.8214 22.9635 32.8684 26.3309 32.4452C29.6983 32.022 32.9721 31.1756 36.0589 29.906C39.0989 28.5894 41.9986 26.9436 44.3371 24.8276C45.787 23.511 47.9851 23.6521 49.2947 25.1098C50.6042 26.5675 50.4639 28.7775 49.0141 30.0941C48.9205 30.1882 48.7802 30.2822 48.6867 30.3762L48.6399 30.4233C45.3193 32.7273 41.718 34.4201 38.0232 35.5016C34.3285 36.6302 30.5401 37.2885 26.705 37.3825C22.9167 37.4766 19.0816 37.1944 15.3401 36.207C11.6453 35.2665 8.04402 33.6208 5.00401 31.2226L4.91047 31.1756C2.99292 29.4358 1.35599 27.2258 0.514144 24.6396C0.093219 23.3229 -0.0938588 21.9593 -0.000319896 20.5957C0.093219 19.232 0.420605 17.9154 0.935069 16.6929C2.01077 14.2477 3.74124 12.2728 5.65878 10.7211C7.6231 9.16934 9.77449 7.94677 12.0194 6.95931C16.5561 5.07843 21.3733 4.23203 26.1438 3.99692C31.0546 3.71479 35.8251 4.23203 40.502 5.07843C40.6423 5.12545 40.7359 5.2195 40.6891 5.36056C40.6891 5.50163 40.5488 5.54865 40.4552 5.54865Z" fill="#E8292B"/>
<path d="M18.9416 18.7149C21.4204 19.6553 24.4604 19.8434 27.5004 19.5142C30.5404 19.1851 33.6272 18.3857 36.5269 17.1161C37.9768 16.4578 39.3331 15.7055 40.5491 14.812C41.1571 14.3418 41.6715 13.8246 42.1392 13.3073C42.5602 12.7901 42.8408 12.1788 42.8876 11.6616C42.8876 11.4265 42.8876 11.1443 42.7472 10.9092C42.6537 10.6741 42.4199 10.392 42.186 10.1569C41.6715 9.68665 41.0168 9.26345 40.3152 8.93429C38.8654 8.27599 37.2284 7.89981 35.5915 7.61768C35.4512 7.61768 35.3577 7.47661 35.4044 7.33555C35.4044 7.24151 35.5447 7.14746 35.6383 7.14746C37.322 7.19448 39.0525 7.28853 40.7362 7.71172C41.578 7.94683 42.4666 8.27599 43.2617 8.84025C43.6826 9.12238 44.0568 9.49856 44.3842 9.96878C44.7116 10.439 44.8986 11.0033 44.9922 11.5675C45.0389 12.1318 44.9922 12.7431 44.8519 13.2603C44.7116 13.7776 44.4777 14.2478 44.2439 14.671C43.7762 15.5644 43.1682 16.3167 42.5602 16.975C41.2974 18.3387 39.8475 19.4202 38.3509 20.4547C35.3577 22.4296 32.0838 23.8873 28.5293 24.8747C25.0216 25.8152 21.2333 26.2854 17.1644 25.5801H17.0708C15.1533 25.2509 13.8905 23.37 14.2179 21.4421C14.5453 19.5142 16.416 18.2446 18.3336 18.5738C18.5207 18.5738 18.7545 18.6208 18.9416 18.7149Z" fill="#14B04C"/>
</g>
<defs>
<clipPath id="clip0">
<rect width="176.087" height="45" fill="white"/>
</clipPath>
</defs>
</svg>
